CATALOG 4988602006599
FILE "Parodius v2.000 (1995)(Konami)(PAL)(Track 1 of 3)[!][compilation].iso" BINARY
  TRACK 01 MODE1/2048
    INDEX 01 00:00:00
FILE "Parodius v2.000 (1995)(Konami)(PAL)(Track 2 of 3)[!][compilation].wav" WAVE
  TRACK 02 AUDIO
    PREGAP 00:02:00
    INDEX 01 00:00:00
FILE "Parodius v2.000 (1995)(Konami)(PAL)(Track 3 of 3)[!][compilation].wav" WAVE
  TRACK 03 AUDIO
    INDEX 00 00:00:00
    INDEX 01 00:02:00
